mtllib cornell-box.mtl
v 343 548.8 227
vn 0 -1 0
vt 0 0
v 343 548.8 332
vn 0 -1 0
vt 0 0
v 213 548.8 332
vn 0 -1 0
vt 0 0
v 213 548.8 227
vn 0 -1 0
vt 0 0
g
usemtl Light
f 1/1/1 2/2/2 3/3/3
f 1/1/1 3/3/3 4/4/4

v 552.8 0 0
vn 0 1 0
vt 0 0
v 0 0 0
vn 0 1 0
vt 0 0
v 0 0 559.2
vn 0 1 0
vt 0 0
v 549.6 0 559.2
vn 0 1 0
vt 0 0
g
usemtl DiffuseWhite
f 5/5/5 6/6/6 7/7/7
f 5/5/5 7/7/7 8/8/8

v 556 548.8 0
vn 0 -1 0
vt 0 0
v 556 548.8 559.2
vn 0 -1 0
vt 0 0
v 0 548.8 559.2
vn 0 -1 0
vt 0 0
v 0 548.8 0
vn 0 -1 0
vt 0 0
g
usemtl DiffuseWhite
f 9/9/9 10/10/10 11/11/11
f 9/9/9 11/11/11 12/12/12

v 549.6 0 559.2
vn 0 0 -1
vt 0 0
v 0 0 559.2
vn 0 0 -1
vt 0 0
v 0 548.8 559.2
vn 0 0 -1
vt 0 0
v 556 548.8 559.2
vn 0 0 -1
vt 0 0
g
usemtl DiffuseWhite
f 13/13/13 14/14/14 15/15/15
f 13/13/13 15/15/15 16/16/16

v 552.8 0 0
vn -0.999958 0.008746 -0.002861
vt 0 0
v 549.6 0 559.2
vn -0.999958 0.008746 -0.002861
vt 0 0
v 556 548.8 559.2
vn -0.999958 0.008746 -0.002861
vt 0 0
v 556 548.8 0
vn -0.999958 0.008746 -0.002861
vt 0 0
g
usemtl LeftWall
f 17/17/17 18/18/18 19/19/19
f 17/17/17 19/19/19 20/20/20

v 0 0 559.2
vn 1 0 0
vt 0 0
v 0 0 0
vn 1 0 0
vt 0 0
v 0 548.8 0
vn 1 0 0
vt 0 0
v 0 548.8 559.2
vn 1 0 0
vt 0 0
g
usemtl RightWall
f 21/21/21 22/22/22 23/23/23
f 21/21/21 23/23/23 24/24/24